<svg xmlns="http://www.w3.org/2000/svg" viewBox="0 0 600 400" width="600" height="400">
  <ellipse cx="96" cy="74" rx="35.14" ry="19.08" fill="#CBB349" transform="rotate(23.92 96 74)" />
  <ellipse cx="236" cy="44" rx="23.97" ry="14.92" fill="#BFAD53" transform="rotate(25.88 236 44)" />
  <ellipse cx="402" cy="92" rx="27.78" ry="16.77" fill="#A1A372" transform="rotate(-59.97 402 92)" />
  <ellipse cx="538" cy="62" rx="21" ry="13.15" fill="#DFBB35" transform="rotate(32.23 538 62)" />
  <ellipse cx="64" cy="238" rx="24.3" ry="13.49" fill="#C7B14B" transform="rotate(-48.68 64 238)" />
  <ellipse cx="206" cy="204" rx="29.98" ry="18.13" fill="#CEB445" transform="rotate(-94.08 206 204)" />
  <ellipse cx="362" cy="252" rx="20.96" ry="11.6" fill="#9BA179" transform="rotate(-34.54 362 252)" />
  <ellipse cx="522" cy="212" rx="25.02" ry="16.35" fill="#E0BB33" transform="rotate(-16.52 522 212)" />
  <ellipse cx="146" cy="352" rx="18.93" ry="11.56" fill="#C4B050" transform="rotate(90.34 146 352)" />
  <ellipse cx="446" cy="358" rx="20.49" ry="11.67" fill="#B2A960" transform="rotate(43.43 446 358)" />
</svg>
