<svg xmlns="http://www.w3.org/2000/svg" viewBox="20 20 60 60" width="64" height="64">
  <ellipse cx="57.8" cy="54.89" rx="7.36" ry="4.81" fill="#E0BB33" transform="rotate(5.48 57.8 54.89)" />
  <ellipse cx="38.78" cy="49.98" rx="8.4" ry="5.26" fill="#DFBB35" transform="rotate(-7.77 38.78 49.98)" />
  <ellipse cx="57.99" cy="38.48" rx="7.89" ry="4.77" fill="#CEB445" transform="rotate(-59.08 57.99 38.48)" />
  <ellipse cx="43.06" cy="36.22" rx="9.76" ry="5.3" fill="#CBB349" transform="rotate(51.92 43.06 36.22)" />
  <ellipse cx="43.27" cy="64.1" rx="8.38" ry="4.65" fill="#C7B14B" transform="rotate(-63.68 43.27 64.1)" />
  <ellipse cx="54.61" cy="66.93" rx="7.01" ry="4.28" fill="#C4B050" transform="rotate(60.34 54.61 66.93)" />
  <ellipse cx="69.23" cy="47.12" rx="8.56" ry="5.33" fill="#BFAD53" transform="rotate(3.88 69.23 47.12)" />
  <ellipse cx="32.4" cy="59.05" rx="6.3" ry="3.72" fill="#C4B051" transform="rotate(13.76 32.4 59.05)" />
  <ellipse cx="32.01" cy="36.76" rx="6.55" ry="3.34" fill="#AEA865" transform="rotate(73.34 32.01 36.76)" />
  <ellipse cx="64.49" cy="66.81" rx="6.83" ry="3.89" fill="#B2A960" transform="rotate(58.43 64.49 66.81)" />
  <ellipse cx="70.72" cy="60.18" rx="5.99" ry="3.45" fill="#B1A861" transform="rotate(66.52 70.72 60.18)" />
  <ellipse cx="25.49" cy="48.75" rx="5.57" ry="3.41" fill="#B1A865" transform="rotate(-89.45 25.49 48.75)" />
  <ellipse cx="55.07" cy="25.16" rx="8.68" ry="5.24" fill="#A1A372" transform="rotate(-49.97 55.07 25.16)" />
  <ellipse cx="64.71" cy="26.71" rx="3.39" ry="2.16" fill="#96A080" transform="rotate(-19.92 64.71 26.71)" />
  <ellipse cx="45.15" cy="78.27" rx="8.06" ry="4.46" fill="#9BA179" transform="rotate(-42.54 45.15 78.27)" />
  <ellipse cx="32.95" cy="74.62" rx="5.42" ry="3.16" fill="#9BA27A" transform="rotate(7.48 32.95 74.62)" />
  <ellipse cx="36.1" cy="22.79" rx="6.28" ry="3.21" fill="#939C88" transform="rotate(-37.91 36.1 22.79)" />
  <ellipse cx="79.55" cy="55.47" rx="5.6" ry="3.38" fill="#9AA17A" transform="rotate(-80.68 79.55 55.47)" />
  <ellipse cx="60.76" cy="77.97" rx="5.34" ry="3.28" fill="#989F80" transform="rotate(-36.95 60.76 77.97)" />
  <ellipse cx="19.49" cy="43.47" rx="5.2" ry="1.9" fill="#9CA17B" transform="rotate(86.04 19.49 43.47)" />
  <ellipse cx="15.97" cy="38.38" rx="4.72" ry="1.37" fill="#8C9D90" transform="rotate(88.69 15.97 38.38)" />
  <ellipse cx="67.75" cy="19.32" rx="5.67" ry="2.9" fill="#889C93" transform="rotate(43.38 67.75 19.32)" />
  <ellipse cx="84.2" cy="62.18" rx="5.03" ry="1.99" fill="#909D89" transform="rotate(-81.57 84.2 62.18)" />
  <ellipse cx="38.3" cy="14.69" rx="6.11" ry="2.03" fill="#88999D" transform="rotate(-27.78 38.3 14.69)" />
  <ellipse cx="63.78" cy="84.03" rx="6.68" ry="2.52" fill="#8B9B94" transform="rotate(-32.78 63.78 84.03)" />
  <ellipse cx="26.18" cy="78.5" rx="6.03" ry="2.2" fill="#899C98" transform="rotate(32.91 26.18 78.5)" />
  <ellipse cx="13.7" cy="33.47" rx="4.56" ry="0.89" fill="#7E9BB1" transform="rotate(-88.71 13.7 33.47)" />
  <ellipse cx="74.4" cy="18.97" rx="5.12" ry="1.71" fill="#8399A6" transform="rotate(44.9 74.4 18.97)" />
  <ellipse cx="86.78" cy="67.84" rx="4.42" ry="1.41" fill="#869AA0" transform="rotate(-79.44 86.78 67.84)" />
  <ellipse cx="41.41" cy="9.09" rx="5.39" ry="1.36" fill="#7E99AC" transform="rotate(-26.34 41.41 9.09)" />
  <ellipse cx="79.27" cy="19.72" rx="4.43" ry="1.11" fill="#7A98B1" transform="rotate(46.41 79.27 19.72)" />
  <ellipse cx="60.64" cy="90.76" rx="5.81" ry="1.53" fill="#819AA9" transform="rotate(-28.54 60.64 90.76)" />
  <ellipse cx="20.03" cy="79.04" rx="5.16" ry="1.51" fill="#859CA2" transform="rotate(32.19 20.03 79.04)" />
  <ellipse cx="12.05" cy="28.88" rx="3.84" ry="0.71" fill="#7598CC" transform="rotate(-88.16 12.05 28.88)" />
  <ellipse cx="83.21" cy="20.93" rx="4" ry="0.77" fill="#789BC9" transform="rotate(47.09 83.21 20.93)" />
  <ellipse cx="88.08" cy="72.48" rx="3.71" ry="0.8" fill="#789AC2" transform="rotate(-78.69 88.08 72.48)" />
  <ellipse cx="45.03" cy="4.74" rx="4.94" ry="0.97" fill="#7A99C1" transform="rotate(-24.56 45.03 4.74)" />
  <ellipse cx="86.45" cy="22.43" rx="3.19" ry="0.57" fill="#719ED9" transform="rotate(48.77 86.45 22.43)" />
  <ellipse cx="15.31" cy="78.83" rx="4.52" ry="0.83" fill="#7B9ABF" transform="rotate(35.41 15.31 78.83)" />
  <ellipse cx="57.25" cy="95.48" rx="4.99" ry="1.01" fill="#779ACD" transform="rotate(-25.87 57.25 95.48)" />
  <ellipse cx="88.64" cy="76.44" rx="2.71" ry="0.58" fill="#759AD8" transform="rotate(-79.19 88.64 76.44)" />
  <ellipse cx="11.84" cy="78.26" rx="2.91" ry="0.65" fill="#7299D2" transform="rotate(41.14 11.84 78.26)" />
  <ellipse cx="49.15" cy="0.79" rx="4.03" ry="0.79" fill="#739CD7" transform="rotate(-22.69 49.15 0.79)" />
  <ellipse cx="53.69" cy="99.23" rx="4.05" ry="0.77" fill="#749AD9" transform="rotate(-23.61 53.69 99.23)" />
</svg>
